<svg width="300" height="21" viewBox="0 0 146 21" fill="none" xmlns="http://www.w3.org/2000/svg">
<path d="M138.144 20.512C136.629 20.512 135.306 20.3733 134.176 20.096C133.045 19.84 132.096 19.5733 131.328 19.296L130.72 15.264L133.088 15.008L133.504 17.408C134.144 17.6213 134.816 17.792 135.52 17.92C136.224 18.048 137.077 18.112 138.08 18.112C138.869 18.112 139.594 18.0053 140.256 17.792C140.938 17.5787 141.482 17.2373 141.888 16.768C142.314 16.2773 142.528 15.6373 142.528 14.848C142.528 14.0373 142.304 13.344 141.856 12.768C141.429 12.192 140.576 11.808 139.296 11.616L136.896 11.264C135.04 10.9653 133.61 10.3467 132.608 9.40801C131.626 8.46935 131.136 7.28535 131.136 5.85601C131.136 4.81068 131.402 3.90401 131.936 3.13601C132.469 2.34668 133.258 1.73868 134.304 1.31201C135.349 0.864014 136.618 0.640015 138.112 0.640015C138.901 0.640015 139.626 0.672014 140.288 0.736013C140.949 0.800014 141.589 0.917348 142.208 1.08801C142.826 1.23735 143.477 1.45068 144.16 1.72801L144.736 5.88801L142.304 6.14401L141.888 3.48801C141.461 3.33868 140.928 3.22135 140.288 3.13601C139.648 3.02935 138.912 2.97602 138.08 2.97602C136.757 2.97602 135.701 3.22135 134.912 3.71202C134.144 4.18135 133.76 4.85335 133.76 5.72801C133.76 6.58135 134.037 7.24268 134.592 7.71202C135.168 8.18135 136 8.50135 137.088 8.67202L139.872 9.12001C141.749 9.39735 143.125 10.0053 144 10.944C144.874 11.8827 145.312 13.056 145.312 14.464C145.312 15.5093 145.109 16.4267 144.704 17.216C144.298 17.984 143.754 18.6133 143.072 19.104C142.41 19.5733 141.653 19.9253 140.8 20.16C139.946 20.3947 139.061 20.512 138.144 20.512Z" fill="white"/>
<path d="M111.623 1.15201H125.927L127.623 6.27201L125.287 7.07201L124.007 3.64801H117.479V9.05601H123.303V11.552H117.479L117.447 17.504H124.711L125.959 14.144L128.295 14.944L126.599 20H111.591V17.504H114.567L114.599 3.64801H111.623V1.15201Z" fill="white"/>
<path d="M91.8098 20V17.504H94.7217V3.64801H91.8098V1.15201H100.29C102.082 1.15201 103.49 1.37601 104.514 1.82401C105.559 2.27201 106.295 2.93334 106.722 3.80801C107.17 4.66134 107.394 5.71734 107.394 6.97601C107.394 8.91734 106.871 10.3893 105.826 11.392C104.78 12.3947 102.999 12.896 100.482 12.896H97.6018V17.504H99.5218V20H91.8098ZM97.6338 10.368H100.258C101.175 10.368 101.932 10.2827 102.53 10.112C103.127 9.94134 103.575 9.61068 103.874 9.12001C104.194 8.62934 104.354 7.92534 104.354 7.00801C104.354 6.09068 104.194 5.38668 103.874 4.89601C103.554 4.40534 103.084 4.07468 102.466 3.90401C101.868 3.73334 101.132 3.64801 100.258 3.64801H97.6338V10.368ZM104.514 20L100.514 12.672L103.426 12.288L106.498 17.504H109.474V20H104.514Z" fill="white"/>
<path d="M86.7325 13.152C86.7325 15.392 86.1565 17.184 85.0045 18.528C83.8525 19.8507 82.0498 20.512 79.5965 20.512C77.2072 20.512 75.4472 19.8507 74.3165 18.528C73.2072 17.184 72.6525 15.392 72.6525 13.152V3.64801H69.6765V1.15201H77.5485V3.64801H75.5325V13.952C75.5325 15.4027 75.8952 16.4587 76.6205 17.12C77.3672 17.7813 78.3592 18.112 79.5965 18.112C80.8978 18.112 81.9325 17.7493 82.7005 17.024C83.4685 16.2987 83.8525 15.168 83.8525 13.632V3.64801H81.8685V1.15201H89.7085V3.64801H86.7325V13.152Z" fill="white"/>
<path d="M50.9943 1.15201H67.6343V6.72001H64.9783V3.64801H60.7863L60.7223 17.504H63.6663V20H54.8983V17.504H57.8423L57.8743 3.64801H53.6823V6.72001H50.9943V1.15201Z" fill="white"/>
<path d="M29.0477 20V17.536H31.8957L37.2397 10.432L31.7997 3.64801H29.0797V1.15201H37.3037V3.64801H35.3197L39.1277 8.41601L42.7757 3.64801H40.6957V1.15201H48.7917V3.64801H45.8157L40.7597 10.336L46.4877 17.536H49.3997V20H40.7917V17.536H43.0317L38.8717 12.384L34.9357 17.536H37.1117V20H29.0477Z" fill="white"/>
<path d="M18.1543 1.15201H27.1143V3.64801H24.1383L24.0743 17.504H27.1143V20H18.1223V17.504H21.2263V3.64801H18.1543V1.15201Z" fill="white"/>
<path d="M0.248003 1.15201H14.52L16.248 6.33601L13.912 7.13601L12.632 3.64801H6.072V9.21601H11.256V11.712H6.04V17.504H10.008V20H0.216003V17.504H3.192L3.224 3.64801H0.248003V1.15201Z" fill="white"/>
</svg>
